<svg xmlns="http://www.w3.org/2000/svg" width="1650.842" height="511.998" viewBox="0 0 1650.842 511.998">
  <g id="logo-DSport-L" transform="translate(-143.7 -498.802)">
    <path id="Path_52" data-name="Path 52" d="M388.7,520.8c-135.3,0-245,109.7-245,245A244.914,244.914,0,0,0,258.2,973.2l65.6,28.9a243.782,243.782,0,0,0,64.9,8.7,249.015,249.015,0,0,0,32.6-2.2l75.6-23c81-40,136.8-123.4,136.8-219.8C633.7,630.5,524,520.8,388.7,520.8Z" fill="#61a6db"/>
    <path id="Path_53" data-name="Path 53" d="M333.4,978.9c-22.9-3.6-55.2-22.9-63.1-30.1a10.038,10.038,0,0,1-2-2.6,266.18,266.18,0,0,0-10,27,241.356,241.356,0,0,0,65.6,28.9c5.1-7.9,9.8-16,13.9-23.5A9.5,9.5,0,0,1,333.4,978.9Z" fill="#f8ba8f"/>
    <path id="Path_54" data-name="Path 54" d="M290.7,990.4a236.191,236.191,0,0,0,33.1,11.7c5.1-7.9,9.8-16,13.9-23.5a10.46,10.46,0,0,1-4.3.3c-10.5-1.7-23-6.6-34.2-12.2l-1.2,1.6C298,968.2,301,981.8,290.7,990.4Z" fill="#faad6e"/>
    <path id="Path_55" data-name="Path 55" d="M450,892a12.583,12.583,0,0,1-2.2,8.9,209.732,209.732,0,0,1-46.4,47.2A16.331,16.331,0,0,1,398,950a108.38,108.38,0,0,0,33.3,13.9,6.365,6.365,0,0,1,4.4,8.9,291.347,291.347,0,0,0-14.4,35.9,245.1,245.1,0,0,0,75.6-23c5.5-11.7,9.1-22.2,8.6-28.3C503.7,937.4,473.2,910.1,450,892Z" fill="#f8ba8f"/>
    <path id="Path_56" data-name="Path 56" d="M421.4,1008.7a244.9,244.9,0,0,0,30.9-6.2,22.425,22.425,0,0,1,3.5-15.4c11.6-17.4,15.8-36.2-4-42.7s-16.1-25.6-16.1-25.6l-1-1.3a208.137,208.137,0,0,1-33.2,30.6,16.332,16.332,0,0,1-3.4,1.9,108.38,108.38,0,0,0,33.3,13.9,6.364,6.364,0,0,1,4.4,8.9A262.515,262.515,0,0,0,421.4,1008.7Z" fill="#faad6e"/>
    <g id="Group_12" data-name="Group 12">
      <path id="Path_57" data-name="Path 57" d="M329.1,912.2c-27-17.4-30.1-39.4-26.6-56.9-1.5.8-2.3,1.3-2.3,1.3s-12.1,21.9-14.2,42c-1.5,14.4-12.4,29.2-18.1,39.6a10.345,10.345,0,0,0,2.1,12.6c7.9,7.2,40.2,26.5,63.1,30.1a10.2,10.2,0,0,0,7.9-2.1c7-5.5,10.8-18.9,25.8-43.2C357.6,929.7,344.1,921.9,329.1,912.2Z" fill="#2a438b"/>
      <path id="Path_58" data-name="Path 58" d="M318.9,940.2c-7.7,18-10,23.7-10,23.7s-3.8,6.3-11,4.4c11.5,5.8,24.4,11,35.2,12.7a10.2,10.2,0,0,0,7.9-2.1c7-5.5,10.8-18.9,25.8-43.2-9.2-6-22.7-13.8-37.7-23.5-27-17.4-30.1-39.4-26.6-56.9-1.5.8-2.3,1.3-2.3,1.3s-12.1,21.9-14.2,42C286,898.6,326.6,922.2,318.9,940.2Z" fill="#253771"/>
    </g>
    <path id="Path_59" data-name="Path 59" d="M448,884.7c-10.5-9.3-29.8-25.4-49.2-36.1l-87.3-20c-7.4,11.5-30,54.1,15.6,83.4,30.2,19.4,47.5,30.7,56.7,36.8a17.156,17.156,0,0,0,19.6-.4,209.733,209.733,0,0,0,46.4-47.2A12.43,12.43,0,0,0,448,884.7Z" fill="#5072b7"/>
    <path id="Path_60" data-name="Path 60" d="M403.5,948.3a203.253,203.253,0,0,0,32.2-29.5,17.259,17.259,0,0,1-9.2-1.3s6.9,3.9-34.2-17.2S364,851.2,364,851.2l-13.5-13.8-38.9-8.9c-7.4,11.5-30,54.1,15.6,83.4,30.2,19.4,47.5,30.7,56.7,36.8A17.156,17.156,0,0,0,403.5,948.3Z" fill="#3d59a0"/>
    <path id="Path_61" data-name="Path 61" d="M524.9,692.3c-2.9-1.9-12.6,4.2-19,8.7a12.476,12.476,0,0,0-5.4,10.1,34.214,34.214,0,0,1-1.7,10.7,5.477,5.477,0,0,1-2.5,3.1c-5.5,3.2-11.2,6-15.3,6.4-8.6.9-26.2-.9-40.8,5.8a89.51,89.51,0,0,1-5.8,20.1c-6.2,14.7-13,31.5-18.9,46.9a12.366,12.366,0,0,0,6.6-3.4,7.889,7.889,0,0,1,2.9-1.8c9.3-3.3,51.3-19.6,85.8-55.6a14.337,14.337,0,0,1,4.9-3.2c8.8-3.2,19-11.3,22.4-18.8C542.5,711.9,529.4,695.2,524.9,692.3Z" fill="#f8ba8f"/>
    <path id="Path_62" data-name="Path 62" d="M461.5,732.2c-7,.6-14.5,1.8-21.4,5a89.509,89.509,0,0,1-5.8,20.1c-6.2,14.7-13,31.5-18.9,46.9a12.366,12.366,0,0,0,6.6-3.4,7.89,7.89,0,0,1,2.9-1.8,225.9,225.9,0,0,0,45.7-22.9C444.4,762.1,461.5,732.2,461.5,732.2Z" fill="#faad6e"/>
    <g id="Group_13" data-name="Group 13">
      <path id="Path_63" data-name="Path 63" d="M508.2,537.6a63.433,63.433,0,0,1-14.5-15.9c-11.6-19.1-47.2-33.9-70.4-12a10.925,10.925,0,0,1-5.3,2.8c-9.7,2.2-34.3,12.4-21,54.1a117.431,117.431,0,0,1,5.5,24.7c4.9-3.6,9.6-8.2,10.8-12.9,1.2-4.9.6-8.9.2-12.2-.5-3.7-.9-6.2,1.3-8.1,3-2.7,6.8-1.1,9.3,1.3a5.679,5.679,0,0,1,1.5,5.5l-.8,3.4a4.617,4.617,0,0,0,3.4,5.6,4.561,4.561,0,0,0,5.5-3.2c4.8-16.2,9.8-27.1,13.2-29.1,2.7-1.6,7.8.1,14.2,2.4,7.5,2.6,16.8,5.9,27.5,5.9a5.9,5.9,0,0,1-.4.8l2-1.8a83.178,83.178,0,0,0,16.8-4.4A3.984,3.984,0,0,0,508.2,537.6Z" fill="#29448b"/>
      <path id="Path_64" data-name="Path 64" d="M418,512.6c-9.7,2.2-34.3,12.4-21,54.1a117.43,117.43,0,0,1,5.5,24.7c4.9-3.6,9.6-8.2,10.8-12.9,1.2-4.9.6-8.9.2-12.2-.5-3.7-.9-6.2,1.3-8.1,3-2.7,6.8-1.1,9.3,1.3a5.679,5.679,0,0,1,1.5,5.5l-.8,3.4a4.617,4.617,0,0,0,3.4,5.6,4.561,4.561,0,0,0,5.5-3.2c4.8-16.2,9.8-27.1,13.2-29.1-27-5.3-23.6-31.9-23.6-31.9A11.33,11.33,0,0,1,418,512.6Z" fill="#1b2d56"/>
    </g>
    <path id="Path_65" data-name="Path 65" d="M438,658.3c-.4-2.2-.9-4.8-1.5-7.5v.1c-5.7-10.8-19-18.3-37.2-28.5-.6-.5-10.4-4.9-14.8-13.6-.9-1.7-2-4.6-1.8-6.7-16.9,10.5-59.8,42.8-56.9,96.7,3.1,57-11,112.3-15.2,127.4a5.6,5.6,0,0,0,2.5,6.4,130.183,130.183,0,0,0,50.8,18.7l22.7,1.3c2.4-.1,4.9-.2,7.3-.4l2.1-.2a5.767,5.767,0,0,0,4.9-3.7c4.6-12.6,21.3-57.3,35.4-90.6C453,718.4,438,658.3,438,658.3Z" fill="#2a438b"/>
    <path id="Path_66" data-name="Path 66" d="M389.3,722.1s-.4-6.7,4.6-14l-5,1a10.56,10.56,0,0,0-6.4,4.1A115.4,115.4,0,0,1,365.3,732a118.92,118.92,0,0,0,2.1,17.6c7.4,36.1,19.1,74.6-3.5,101.6a132.439,132.439,0,0,0,22.7,1.3,79.908,79.908,0,0,0,12.6-58.7C394.8,767.1,388.9,743.4,389.3,722.1Z" fill="#a1cd3a"/>
    <path id="Path_67" data-name="Path 67" d="M486.2,577.7c-4.5-13.2,4.2-28.8,4.2-28.8-21.3.7-37.3-12.1-43.9-8.1-5.2,3.2-11.2,21.7-13.6,29.5a3.717,3.717,0,0,1-4.1,2.7,3.676,3.676,0,0,1-3-4.5l.9-3.5a6.58,6.58,0,0,0-1.8-6.4c-3.1-2.9-7.4-4.2-10.7-1.3-4.8,4.2.7,10.7-1.8,20.8-1.5,6.2-9.9,12.4-16.1,16.2a1.991,1.991,0,0,1,.8,1.2,22.178,22.178,0,0,0,8.5,15.7c7.9,6.1,20.1,17.3,25.5,21a12.278,12.278,0,0,1,3.1,3.3,23.7,23.7,0,0,1,.8-7.7c5.2-17.8,21.7,4.7,29.3,1.5,11.5-4.9,8.7-29.7,14.3-29.8C490,599.3,490.6,590.8,486.2,577.7Z" fill="#f8ba8f"/>
    <path id="Path_68" data-name="Path 68" d="M428.8,573a3.676,3.676,0,0,1-3-4.5l.9-3.5a6.58,6.58,0,0,0-1.8-6.4c-3.1-2.9-7.4-4.2-10.7-1.3-4.8,4.2.7,10.7-1.8,20.8-1.5,6.2-9.9,12.4-16.1,16.2a1.991,1.991,0,0,1,.8,1.2,22.178,22.178,0,0,0,8.5,15.7c7.9,6.1,20.1,17.3,25.5,21a12.278,12.278,0,0,1,3.1,3.3,23.7,23.7,0,0,1,.8-7.7c1.9-6.5,5.3-7.6,9.2-6.6C425,605.4,428.8,573,428.8,573Z" fill="#faad6e"/>
    <path id="Path_69" data-name="Path 69" d="M437.4,643.1a14.849,14.849,0,0,0-5.9-11.4c-5.4-3.7-17.5-14.8-25.5-20.9a21.4,21.4,0,0,1-8.2-15.2,3.338,3.338,0,0,0-5-2l-9.3,5.6a3.3,3.3,0,0,0-1.6,3.4s-.2,10.8,15.4,19.5c19.3,10.9,33.3,18.5,38.9,29.8a.531.531,0,0,0,1-.2Z" fill="#a1cd3a"/>
    <path id="Path_70" data-name="Path 70" d="M426.8,804c.2-3.5-10-8.8-17.1-12a12.608,12.608,0,0,0-11.5.4,36.014,36.014,0,0,1-10.1,4,5.359,5.359,0,0,1-3.9-.6c-5.5-3.1-10.8-6.7-13.3-10-5.7-7.8-14.2-27-30.4-35.2a1.153,1.153,0,0,1,.1-2.1,68.181,68.181,0,0,0,18.6-9.9c-13.5-7.3-39.9-25.7-47.7-60.2a84.887,84.887,0,0,0-18.8,30.8s-21.4,20.9-18.8,41a8.988,8.988,0,0,1-.4,4c-.8,2.3-1.7,6.3.2,9.9a12.05,12.05,0,0,0,7.5,5.8,6.726,6.726,0,0,1,3,1.6c7.5,6.4,42.7,34.4,91.3,46.1a12.963,12.963,0,0,1,5.2,2.7c7.2,6,19.4,10.7,27.5,9.9C418.7,829.1,426.5,809.4,426.8,804Z" fill="#f8ba8f"/>
    <path id="Path_71" data-name="Path 71" d="M409.6,792a12.608,12.608,0,0,0-11.5.4,36.014,36.014,0,0,1-10.1,4,5.359,5.359,0,0,1-3.9-.6,5.739,5.739,0,0,1-.7-.4c-.7,4.1-2.9,7.5-6.2,8.9-5.9,2.4-21.3-3.7-32.8-22.4-7.9-12.9-22-24.1-29.9-29.8a4.3,4.3,0,0,1,.1-7.1c13.5-9.5,15.2-28.7,15.2-28.7l.5-.7a85.034,85.034,0,0,1-18.9-37.2,84.888,84.888,0,0,0-18.8,30.8s-21.4,20.9-18.8,41a8.988,8.988,0,0,1-.4,4c-.8,2.3-1.7,6.3.2,9.9a12.05,12.05,0,0,0,7.5,5.8,6.726,6.726,0,0,1,3,1.6c7.5,6.4,42.7,34.4,91.3,46.1a12.963,12.963,0,0,1,5.2,2.7c7.2,6,19.4,10.7,27.5,9.9,10.4-1.1,18.2-20.8,18.5-26.2C427,800.5,416.8,795.2,409.6,792Z" fill="#faad6e"/>
    <path id="Path_72" data-name="Path 72" d="M365.9,733.3c-13.2-7.1-40.6-25.7-47.5-61.4a77.892,77.892,0,0,0-7.3,6.9c7.5,35.1,34.8,53.3,47.7,60A62.324,62.324,0,0,0,365.9,733.3Z" fill="#dbe1f2"/>
    <path id="Path_73" data-name="Path 73" d="M318.4,672a77.885,77.885,0,0,0-7.3,6.9,82.092,82.092,0,0,0,18.8,37.4,18.714,18.714,0,0,1,5.6-7.8A83.174,83.174,0,0,1,318.4,672Z" fill="#adb8de"/>
    <path id="Path_74" data-name="Path 74" d="M383.4,714.3a10.287,10.287,0,0,1,6.4-4.1L396,709a35.081,35.081,0,0,0,7.2-2.1,40.732,40.732,0,1,0-49.4-59.8,29.237,29.237,0,0,1-13,11.1,90,90,0,0,0-23,14.3c7,35.7,34.5,54.3,47.6,61.3A112.053,112.053,0,0,0,383.4,714.3Z" fill="#5072b7"/>
    <path id="Path_75" data-name="Path 75" d="M425.1,652.2a40.666,40.666,0,0,0-71.3-5.1,29.237,29.237,0,0,1-13,11.1,90,90,0,0,0-23,14.3A81.267,81.267,0,0,0,335,708.9c9.4-8.6,25.5-6.7,38.4-30.5C388.9,649.5,425.1,652.2,425.1,652.2Z" fill="#3d59a0"/>
    <g id="Group_14" data-name="Group 14">
      <path id="Path_76" data-name="Path 76" d="M143.7,765.8a243.966,243.966,0,0,0,58.4,158.7c47.6,2.3,95.5-102.7,50.1-141-53.3-45,33.7-121.3,69.7-173.3,22.3-32.3,6-60.4-9.7-77.1C214.4,565.2,143.7,657.2,143.7,765.8Z" fill="#7dc0ea"/>
      <path id="Path_77" data-name="Path 77" d="M555.7,586.5c-16.8,4.1-38.4,13.7-45.9,36.1-13.1,38.9,35.5,36.7,50.2,63.6,10.9,19.9.7,61.3-28,79.7-28.7,18.3-110.4,68.3-41.5,113.7,46.9,30.9,64.9,45.9,66,64.9a245.036,245.036,0,0,0-.8-358Z" fill="#7dc0ea"/>
    </g>
    <path id="Path_78" data-name="Path 78" d="M745.5,949.837V683.2h56.548q32.862,0,49.995,17.975c11.422,11.984,17.039,29.023,17.039,50.931V876.811c0,24.9-5.992,43.441-18.163,55.237s-29.585,17.788-52.241,17.788Zm38.2-230.873V913.7h17.6c10.673,0,18.35-2.621,22.844-8.052s6.741-13.856,6.741-25.278V752.106c0-10.486-2.06-18.537-6.366-24.342s-11.984-8.613-23.218-8.613Z" transform="translate(-22 -62.174)"/>
    <path id="Path_79" data-name="Path 79" d="M977.772,761.018h-38.2V752.4c0-8.8-2.06-16.29-6.179-22.657S922.347,720.2,912.61,720.2c-5.243,0-9.55.936-12.733,3a27.333,27.333,0,0,0-7.864,7.49,30.064,30.064,0,0,0-4.119,11.047,72.121,72.121,0,0,0-1.124,12.92,127.456,127.456,0,0,0,.562,13.107,24.879,24.879,0,0,0,2.809,9.362,21.458,21.458,0,0,0,6.554,7.115c2.809,2.06,6.741,3.932,11.8,5.992l29.21,11.609a73.3,73.3,0,0,1,20.6,11.422,47.965,47.965,0,0,1,12.358,15.167,66.631,66.631,0,0,1,5.617,20.41,214.617,214.617,0,0,1,1.5,26.027,136.855,136.855,0,0,1-3.37,31.27c-2.247,9.549-5.8,17.788-10.86,24.529a54.38,54.38,0,0,1-20.6,16.478c-8.426,3.932-18.912,5.992-31.083,5.992a69.69,69.69,0,0,1-25.84-4.868,59.629,59.629,0,0,1-20.6-13.482,64.524,64.524,0,0,1-13.669-20.035,61.046,61.046,0,0,1-5.056-24.9V875.612h38.2V887.6a31.334,31.334,0,0,0,6.179,18.912q6.179,8.426,20.784,8.426,9.83,0,15.167-2.809a20.515,20.515,0,0,0,8.426-8.052,28.955,28.955,0,0,0,3.558-12.545q.562-7.3.562-16.29a147.117,147.117,0,0,0-.749-17.227,31.321,31.321,0,0,0-3-10.86,19.9,19.9,0,0,0-6.928-6.741,108.977,108.977,0,0,0-11.422-5.617l-27.338-11.235c-16.478-6.741-27.525-15.729-33.142-26.776s-8.426-25.091-8.426-41.756a95.135,95.135,0,0,1,4.12-28.461,67.3,67.3,0,0,1,12.358-23.218A57.2,57.2,0,0,1,885.085,687.8c8.052-3.932,17.788-5.8,29.023-5.8a62.178,62.178,0,0,1,26.027,5.243,67.812,67.812,0,0,1,20.41,13.856c11.422,11.984,17.227,25.653,17.227,41.194Z" transform="translate(66.292 -63.221)"/>
    <path id="Path_80" data-name="Path 80" d="M951.9,949.65V683.2h57.3c10.486,0,19.661,1.311,27.712,4.119s15.167,7.677,21.721,14.605a55.5,55.5,0,0,1,13.482,24.529c2.434,9.362,3.745,22.095,3.745,38.011a196.029,196.029,0,0,1-2.06,30.334,62.736,62.736,0,0,1-8.8,23.218,54.858,54.858,0,0,1-20.971,20.41c-8.8,4.868-20.222,7.3-34.453,7.3H990.1V949.837Zm38.2-230.686V809.59h18.35q11.516,0,17.976-3.37a21.527,21.527,0,0,0,9.362-9.362c2.06-3.745,3.183-8.426,3.558-13.856s.562-11.609.562-18.35c0-6.179-.187-12.171-.375-17.788a36.579,36.579,0,0,0-3.37-14.792,21.623,21.623,0,0,0-8.988-9.737c-3.932-2.247-9.737-3.37-17.226-3.37Z" transform="translate(158.074 -62.174)"/>
    <path id="Path_81" data-name="Path 81" d="M1052.1,747.161c0-10.673,1.872-20.222,5.617-28.461a60.363,60.363,0,0,1,14.98-20.6,63.8,63.8,0,0,1,20.41-11.984,66.442,66.442,0,0,1,46.062,0,67.692,67.692,0,0,1,20.784,11.984,62.061,62.061,0,0,1,14.605,20.6c3.745,8.239,5.617,17.788,5.617,28.461V887.97c0,11.235-1.873,20.784-5.617,28.836a58.863,58.863,0,0,1-14.605,19.848,65.125,65.125,0,0,1-20.784,12.358,66.442,66.442,0,0,1-46.062,0,61.5,61.5,0,0,1-20.41-12.358,57.355,57.355,0,0,1-14.98-19.848c-3.745-8.052-5.617-17.6-5.617-28.836Zm38.2,140.808c0,9.175,2.621,16.1,7.677,20.41a28.445,28.445,0,0,0,36.326,0c5.055-4.307,7.677-11.235,7.677-20.41V747.161c0-9.175-2.622-16.1-7.677-20.41a28.445,28.445,0,0,0-36.326,0c-5.056,4.307-7.677,11.235-7.677,20.41Z" transform="translate(245.493 -63.221)"/>
    <path id="Path_82" data-name="Path 82" d="M1158.5,949.65V683.2h61.417q67.408,0,67.408,78.268c0,15.729-2.434,29.023-7.3,40.07s-13.482,19.848-25.653,26.589l41.194,121.709h-40.445l-35.577-113.845H1196.7V949.837Zm38.2-230.686V802.1h21.72c6.741,0,12.171-.936,16.1-2.809a21.831,21.831,0,0,0,9.362-8.052A36.185,36.185,0,0,0,1248,778.32a141.377,141.377,0,0,0,0-35.577,35.99,35.99,0,0,0-4.494-13.294c-4.681-6.928-13.669-10.486-26.963-10.486Z" transform="translate(338.322 -62.174)"/>
    <path id="Path_83" data-name="Path 83" d="M1294.09,949.737V719.051H1249.9V683.1h126.578v35.951h-44.19V949.737Z" transform="translate(418.064 -62.261)"/>
  </g>
</svg>
